<?xml version="1.0" encoding="utf-8"?>
<!-- Generator: Adobe Illustrator 27.0.0, SVG Export Plug-In . SVG Version: 6.00 Build 0)  -->
<svg version="1.1" id="Layer_1" xmlns="http://www.w3.org/2000/svg" xmlns:xlink="http://www.w3.org/1999/xlink" x="0px" y="0px"
	 viewBox="0 0 125.25 25.87" style="enable-background:new 0 0 125.25 25.87;" xml:space="preserve">
<style type="text/css">
	.st0{fill:#CC0000;}
	.st1{fill:#FFFFFF;}
</style>
<g>
	<rect x="0" class="st0" width="54" height="25.87"/>
	<g>
		<polygon class="st1" points="7.55,6.74 7.57,6.74 9.68,12.41 11.81,12.41 11.81,4.66 10.3,4.66 10.3,10.02 10.28,10.02 8.22,4.66 
			6.03,4.66 6.03,12.41 7.55,12.41 		"/>
		<path class="st1" d="M15.78,11.38c-0.91,0-1.03-0.86-1.03-2.84c0-1.98,0.12-2.84,1.03-2.84c0.48,0,0.66,0.39,0.66,1.42h1.59
			c0.06-1.66-0.6-2.57-2.25-2.57c-2.67,0-2.67,1.95-2.67,4c0,2.03,0,4,2.67,4c1.51,0,2.34-0.66,2.34-2.73h-1.6
			C16.49,10.41,16.53,11.38,15.78,11.38z"/>
		<path class="st1" d="M26.33,10.29c0-2.43-3.26-2.3-3.26-3.77c0-0.54,0.31-0.83,0.84-0.83c0.65,0,0.75,0.59,0.75,1.17h1.58
			c0.11-1.62-0.68-2.33-2.25-2.33c-1.97,0-2.55,0.97-2.55,2.18c0,2.31,3.26,2.39,3.26,3.79c0,0.52-0.27,0.88-0.81,0.88
			c-0.89,0-0.92-0.62-0.92-1.36h-1.62c-0.09,1.34,0.29,2.52,2.3,2.52C24.86,12.53,26.33,12.3,26.33,10.29z"/>
		<polygon class="st1" points="28.68,12.41 30.3,12.41 30.3,5.95 32.1,5.95 32.1,4.66 26.88,4.66 26.88,5.95 28.68,5.95 		"/>
		<path class="st1" d="M33.76,4.66l-2.14,7.74h1.6l0.44-1.72h2.21l0.43,1.72H38l-2.1-7.74H33.76z M33.98,9.5l0.74-3.35h0.02
			l0.78,3.35H33.98z"/>
		<polygon class="st1" points="40.92,12.41 40.92,5.95 42.72,5.95 42.72,4.66 37.49,4.66 37.49,5.95 39.3,5.95 39.3,12.41 		"/>
		<polygon class="st1" points="47.79,11.21 45.09,11.21 45.09,8.95 47.49,8.95 47.49,7.76 45.09,7.76 45.09,5.85 47.7,5.85 
			47.7,4.66 43.47,4.66 43.47,12.41 47.79,12.41 		"/>
		<path class="st1" d="M9.18,18.86c0,0.83,0,2-1.29,2c-1.29,0-1.29-1.18-1.29-2v-3.98H6.03v4.4c0,1.63,0.86,2.06,1.85,2.06
			c0.99,0,1.85-0.43,1.85-2.06v-4.4H9.18V18.86z"/>
		<polygon class="st1" points="14.84,20.42 14.82,20.44 12.26,14.88 11.4,14.88 11.4,21.21 11.96,21.21 11.96,15.61 11.98,15.59 
			14.55,21.21 15.4,21.21 15.4,14.88 14.84,14.88 		"/>
		<rect x="17.17" y="14.88" class="st1" width="0.56" height="6.33"/>
		<polygon class="st1" points="21.01,20.55 20.99,20.55 19.49,14.88 18.9,14.88 20.66,21.21 21.36,21.21 23.11,14.88 22.57,14.88 		
			"/>
		<polygon class="st1" points="24.82,18.2 27.02,18.2 27.02,17.72 24.82,17.72 24.82,15.35 27.12,15.35 27.12,14.88 24.26,14.88 
			24.26,21.21 27.19,21.21 27.19,20.74 24.82,20.74 		"/>
		<path class="st1" d="M30.77,17.92v-0.02c0.85-0.19,0.98-0.72,0.98-1.51c0-1.11-0.31-1.52-1.53-1.52h-1.74v6.33h0.56v-3.07h1.06
			c1.22,0,1.03,1.22,1.04,1.49c0.01,0.34,0.04,1.39,0.09,1.58h0.54c-0.02-0.24-0.06-0.49-0.06-0.74
			C31.71,18.21,31.66,18.11,30.77,17.92z M29.96,17.67h-0.91v-2.31h1.15c0.66,0,1,0.17,1,1.03C31.19,17.45,30.8,17.67,29.96,17.67z"
			/>
		<path class="st1" d="M34.98,17.7c-0.72-0.52-1.19-0.54-1.19-1.48c0-0.75,0.43-0.98,1.11-0.98c0.86,0,1.06,0.47,1.07,1.25h0.57
			c0-0.91-0.28-1.73-1.6-1.73c-1.03,0-1.73,0.46-1.72,1.55c0.01,0.63,0.06,1.01,1.29,1.76c0.91,0.56,1.48,0.81,1.48,1.67
			c0,0.73-0.36,1.12-1.1,1.12c-1.13,0-1.18-0.73-1.18-1.43h-0.58c-0.05,1.24,0.5,1.9,1.74,1.9c1.11,0,1.68-0.55,1.68-1.68
			C36.56,18.42,35.77,18.26,34.98,17.7z"/>
		<rect x="38.14" y="14.88" class="st1" width="0.56" height="6.33"/>
		<polygon class="st1" points="39.92,15.35 41.46,15.35 41.46,21.21 42.02,21.21 42.02,15.35 43.56,15.35 43.56,14.88 39.92,14.88 
					"/>
		<polygon class="st1" points="47.79,14.88 46.27,18.03 44.83,14.88 44.19,14.88 45.98,18.58 45.98,21.21 46.55,21.21 46.55,18.58 
			48.35,14.88 		"/>
	</g>
</g>
<g>
	<path d="M62.56,12.08V5.51h0.99l1.94,5.93h0.02l1.91-5.93h0.93v6.57h-0.58v-6h-0.02l-1.93,6h-0.67l-1.98-6h-0.02v6H62.56z"/>
	<path d="M71.92,11.51H71.9c-0.29,0.44-0.74,0.65-1.3,0.65c-0.82,0-1.26-0.55-1.26-1.35c0-1.61,1.62-1.45,2.55-1.52V8.91
		c0-0.67-0.2-1.08-0.93-1.08c-0.5,0-0.9,0.25-0.9,0.79h-0.58C69.52,7.74,70.2,7.39,71,7.39c0.46,0,1.43,0.05,1.43,1.22v2.31
		c0,0.33,0,0.62,0.05,1.15h-0.56V11.51z M71.89,9.73c-0.78,0.03-1.96-0.06-1.96,1.05c0,0.52,0.26,0.95,0.83,0.95
		c0.63,0,1.14-0.56,1.14-1.16V9.73z"/>
	<path d="M73.18,7.92V7.48h0.74V6.54l0.55-0.24v1.18h0.93v0.44h-0.93v2.95c0,0.61,0.06,0.75,0.5,0.75c0.18,0,0.31-0.01,0.43-0.03
		v0.47c-0.16,0.02-0.35,0.03-0.52,0.03c-0.74,0-0.96-0.33-0.96-0.89V7.92H73.18z"/>
	<path d="M76.54,9.89v0.35c0,0.64,0.17,1.48,1.04,1.48c0.68,0,1.02-0.44,1.01-1.05h0.57c-0.06,1.11-0.66,1.49-1.58,1.49
		c-0.79,0-1.58-0.32-1.58-1.71V9.33c0-1.33,0.55-1.94,1.58-1.94c1.58,0,1.58,1.14,1.58,2.5H76.54z M78.62,9.46
		c0-1.02-0.16-1.63-1.04-1.63s-1.04,0.61-1.04,1.63H78.62z"/>
	<path d="M80.74,8.1h0.02c0.23-0.44,0.71-0.71,1.26-0.71v0.55c-0.77-0.06-1.28,0.4-1.28,1.17v2.96h-0.55V7.48h0.55V8.1z"/>
	<path d="M82.8,6.2V5.51h0.67V6.2H82.8z M82.87,12.08V7.48h0.55v4.59H82.87z"/>
	<path d="M87.08,11.51h-0.02c-0.29,0.44-0.74,0.65-1.3,0.65c-0.82,0-1.26-0.55-1.26-1.35c0-1.61,1.62-1.45,2.55-1.52V8.91
		c0-0.67-0.2-1.08-0.93-1.08c-0.5,0-0.9,0.25-0.9,0.79h-0.58c0.04-0.88,0.73-1.23,1.53-1.23c0.46,0,1.43,0.05,1.43,1.22v2.31
		c0,0.33,0,0.62,0.05,1.15h-0.56V11.51z M87.04,9.73c-0.78,0.03-1.96-0.06-1.96,1.05c0,0.52,0.26,0.95,0.83,0.95
		c0.63,0,1.14-0.56,1.14-1.16V9.73z"/>
	<path d="M88.93,12.08V5.51h0.55v6.57H88.93z"/>
	<path d="M91.98,12.17c-0.99,0-1.38-0.48-1.37-1.46h0.55c0,0.63,0.15,1.05,0.85,1.05c0.53,0,0.78-0.3,0.78-0.81
		c0-1.2-2.06-0.89-2.06-2.41c0-0.85,0.58-1.15,1.38-1.15c0.91,0,1.2,0.63,1.2,1.33h-0.54c-0.03-0.58-0.18-0.89-0.8-0.89
		c-0.39,0-0.7,0.25-0.7,0.66c0,1.15,2.06,0.84,2.06,2.37C93.34,11.73,92.84,12.17,91.98,12.17z"/>
	<path d="M99.2,7.17c-0.02-0.81-0.22-1.3-1.11-1.3c-0.71,0-1.16,0.25-1.16,1.02c0,0.97,0.49,1,1.24,1.54
		c0.81,0.58,1.64,0.75,1.64,2.03c0,1.17-0.6,1.75-1.75,1.75c-1.28,0-1.86-0.69-1.8-1.97h0.6c0,0.73,0.05,1.48,1.23,1.48
		c0.76,0,1.14-0.41,1.14-1.16c0-0.89-0.59-1.15-1.54-1.73c-1.27-0.78-1.33-1.17-1.34-1.83c-0.01-1.14,0.71-1.61,1.78-1.61
		c1.36,0,1.65,0.85,1.65,1.79H99.2z"/>
	<path d="M102.92,8.8c0.03-0.57-0.18-0.97-0.81-0.97c-0.34,0-0.62,0.19-0.74,0.53c-0.07,0.21-0.13,0.84-0.13,1.45
		c0,0.83,0,1.93,0.85,1.93c0.72,0,0.81-0.45,0.84-1.01h0.54c0.05,1.24-0.83,1.45-1.25,1.45c-1.55,0-1.55-1.23-1.55-2.36
		c0-0.46,0.02-1.17,0.14-1.52c0.24-0.65,0.75-0.89,1.38-0.89c0.79,0,1.33,0.45,1.28,1.41H102.92z"/>
	<path d="M104.53,6.2V5.51h0.67V6.2H104.53z M104.59,12.08V7.48h0.55v4.59H104.59z"/>
	<path d="M106.85,9.89v0.35c0,0.64,0.17,1.48,1.04,1.48c0.68,0,1.02-0.44,1.01-1.05h0.57c-0.06,1.11-0.66,1.49-1.58,1.49
		c-0.79,0-1.58-0.32-1.58-1.71V9.33c0-1.33,0.55-1.94,1.58-1.94c1.58,0,1.58,1.14,1.58,2.5H106.85z M108.93,9.46
		c0-1.02-0.16-1.63-1.04-1.63s-1.04,0.61-1.04,1.63H108.93z"/>
	<path d="M111.01,12.08h-0.55V7.48h0.55v0.56h0.02c0.26-0.38,0.62-0.65,1.11-0.65c1.14,0,1.25,0.85,1.25,1.45v3.24h-0.55V8.86
		c0-0.54-0.21-1.04-0.85-1.04c-0.49,0-0.99,0.34-0.99,1.36V12.08z"/>
	<path d="M116.55,8.8c0.03-0.57-0.18-0.97-0.81-0.97c-0.34,0-0.62,0.19-0.74,0.53c-0.07,0.21-0.13,0.84-0.13,1.45
		c0,0.83,0,1.93,0.85,1.93c0.72,0,0.81-0.45,0.84-1.01h0.54c0.05,1.24-0.83,1.45-1.25,1.45c-1.55,0-1.55-1.23-1.55-2.36
		c0-0.46,0.02-1.17,0.14-1.52c0.24-0.65,0.75-0.89,1.38-0.89c0.79,0,1.33,0.45,1.28,1.41H116.55z"/>
	<path d="M118.47,9.89v0.35c0,0.64,0.17,1.48,1.04,1.48c0.68,0,1.02-0.44,1.01-1.05h0.57c-0.06,1.11-0.66,1.49-1.58,1.49
		c-0.79,0-1.58-0.32-1.58-1.71V9.33c0-1.33,0.55-1.94,1.58-1.94c1.58,0,1.58,1.14,1.58,2.5H118.47z M120.54,9.46
		c0-1.02-0.16-1.63-1.04-1.63s-1.04,0.61-1.04,1.63H120.54z"/>
	<path d="M64.85,20.61h-0.02c-0.29,0.44-0.74,0.65-1.3,0.65c-0.82,0-1.26-0.55-1.26-1.35c0-1.61,1.62-1.45,2.55-1.52v-0.38
		c0-0.67-0.2-1.08-0.93-1.08c-0.5,0-0.9,0.25-0.9,0.79H62.4c0.04-0.88,0.73-1.23,1.53-1.23c0.46,0,1.43,0.05,1.43,1.22v2.31
		c0,0.33,0,0.62,0.05,1.16h-0.56V20.61z M64.81,18.83c-0.78,0.03-1.96-0.06-1.96,1.06c0,0.52,0.26,0.95,0.83,0.95
		c0.63,0,1.14-0.56,1.14-1.16V18.83z"/>
	<path d="M67.06,21.17h-0.55v-4.59h0.55v0.56h0.02c0.26-0.38,0.62-0.66,1.11-0.66c1.14,0,1.25,0.85,1.25,1.45v3.24h-0.55v-3.21
		c0-0.54-0.21-1.04-0.85-1.04c-0.49,0-0.99,0.34-0.99,1.36V21.17z"/>
	<path d="M72.96,20.59l-0.02,0.01c-0.28,0.44-0.63,0.66-1.16,0.66c-1.33,0-1.4-1.32-1.4-2.39c0-0.88,0-2.38,1.41-2.38
		c0.42,0,0.83,0.19,1.11,0.55l0.02,0.01v-2.44h0.55v5.66c0,0.45,0.03,0.75,0.05,0.91h-0.53L72.96,20.59z M72.93,19.29v-0.82
		c0-0.27,0-1.55-1.03-1.55c-0.98,0-0.98,0.89-0.98,1.96c0,1.71,0.41,1.94,1,1.94C72.44,20.83,72.93,20.41,72.93,19.29z"/>
	<path d="M79.71,14.61v0.49h-2.39v2.46h2.28v0.49h-2.28v2.64h2.46v0.49h-3.04v-6.57H79.71z"/>
	<path d="M81.19,21.17h-0.55v-4.59h0.55v0.56h0.02c0.26-0.38,0.62-0.66,1.11-0.66c1.14,0,1.25,0.85,1.25,1.45v3.24h-0.55v-3.21
		c0-0.54-0.21-1.04-0.85-1.04c-0.49,0-0.99,0.34-0.99,1.36V21.17z"/>
	<path d="M87.09,16.57h0.54c-0.02,0.44-0.03,0.66-0.03,0.9v3.87c0,1.01-0.31,1.61-1.62,1.61c-1.15,0-1.37-0.81-1.34-1.27h0.54
		c-0.04,0.53,0.35,0.84,0.86,0.84c1.06,0,1-0.57,1-1.95h-0.02c-0.24,0.39-0.67,0.55-1.11,0.55c-1.32,0-1.41-1.14-1.41-2.16
		c0-1.06,0.01-1.07,0.14-1.56c0.04-0.19,0.36-0.91,1.29-0.91c0.46,0,0.93,0.24,1.13,0.65l0.02,0.02V16.57z M85.06,18.77
		c0,0.96,0,1.91,0.99,1.91c0.46,0,0.75-0.3,0.83-0.52c0.14-0.35,0.17-0.56,0.17-1.91c0-0.96-0.52-1.33-1.03-1.33
		C85.08,16.92,85.06,18.09,85.06,18.77z"/>
	<path d="M88.84,15.3v-0.69h0.67v0.69H88.84z M88.91,21.17v-4.59h0.55v4.59H88.91z"/>
	<path d="M91.29,21.17h-0.55v-4.59h0.55v0.56h0.02c0.26-0.38,0.62-0.66,1.11-0.66c1.14,0,1.25,0.85,1.25,1.45v3.24h-0.55v-3.21
		c0-0.54-0.21-1.04-0.85-1.04c-0.49,0-0.99,0.34-0.99,1.36V21.17z"/>
	<path d="M95.21,18.99v0.35c0,0.64,0.17,1.48,1.04,1.48c0.68,0,1.02-0.44,1.01-1.05h0.57c-0.06,1.11-0.66,1.49-1.58,1.49
		c-0.79,0-1.58-0.32-1.58-1.71v-1.13c0-1.33,0.55-1.94,1.58-1.94c1.58,0,1.58,1.14,1.58,2.5H95.21z M97.29,18.55
		c0-1.02-0.16-1.63-1.04-1.63s-1.04,0.61-1.04,1.63H97.29z"/>
	<path d="M99.25,18.99v0.35c0,0.64,0.17,1.48,1.04,1.48c0.68,0,1.02-0.44,1.01-1.05h0.57c-0.06,1.11-0.66,1.49-1.58,1.49
		c-0.79,0-1.58-0.32-1.58-1.71v-1.13c0-1.33,0.55-1.94,1.58-1.94c1.58,0,1.58,1.14,1.58,2.5H99.25z M101.32,18.55
		c0-1.02-0.16-1.63-1.04-1.63s-1.04,0.61-1.04,1.63H101.32z"/>
	<path d="M103.44,17.2h0.02c0.23-0.44,0.71-0.71,1.26-0.71v0.55c-0.77-0.06-1.28,0.4-1.28,1.17v2.96h-0.55v-4.59h0.55V17.2z"/>
	<path d="M105.51,15.3v-0.69h0.67v0.69H105.51z M105.57,21.17v-4.59h0.55v4.59H105.57z"/>
	<path d="M107.96,21.17h-0.55v-4.59h0.55v0.56h0.02c0.26-0.38,0.62-0.66,1.11-0.66c1.14,0,1.25,0.85,1.25,1.45v3.24h-0.55v-3.21
		c0-0.54-0.21-1.04-0.85-1.04c-0.49,0-0.99,0.34-0.99,1.36V21.17z"/>
	<path d="M113.85,16.57h0.54c-0.02,0.44-0.03,0.66-0.03,0.9v3.87c0,1.01-0.31,1.61-1.62,1.61c-1.15,0-1.37-0.81-1.34-1.27h0.54
		c-0.04,0.53,0.35,0.84,0.86,0.84c1.06,0,1-0.57,1-1.95h-0.02c-0.24,0.39-0.67,0.55-1.11,0.55c-1.32,0-1.41-1.14-1.41-2.16
		c0-1.06,0.01-1.07,0.14-1.56c0.04-0.19,0.36-0.91,1.29-0.91c0.46,0,0.93,0.24,1.13,0.65l0.02,0.02V16.57z M111.82,18.77
		c0,0.96,0,1.91,0.99,1.91c0.46,0,0.75-0.3,0.83-0.52c0.14-0.35,0.17-0.56,0.17-1.91c0-0.96-0.52-1.33-1.03-1.33
		C111.84,16.92,111.82,18.09,111.82,18.77z"/>
</g>
</svg>
